<?xml version="1.0" encoding="utf-8"?>
<!-- Generator: Adobe Illustrator 16.0.0, SVG Export Plug-In . SVG Version: 6.00 Build 0)  -->
<!DOCTYPE svg PUBLIC "-//W3C//DTD SVG 1.1//EN" "http://www.w3.org/Graphics/SVG/1.1/DTD/svg11.dtd" [
	<!ENTITY ns_extend "http://ns.adobe.com/Extensibility/1.0/">
	<!ENTITY ns_ai "http://ns.adobe.com/AdobeIllustrator/10.0/">
	<!ENTITY ns_graphs "http://ns.adobe.com/Graphs/1.0/">
	<!ENTITY ns_vars "http://ns.adobe.com/Variables/1.0/">
	<!ENTITY ns_imrep "http://ns.adobe.com/ImageReplacement/1.0/">
	<!ENTITY ns_sfw "http://ns.adobe.com/SaveForWeb/1.0/">
	<!ENTITY ns_custom "http://ns.adobe.com/GenericCustomNamespace/1.0/">
	<!ENTITY ns_adobe_xpath "http://ns.adobe.com/XPath/1.0/">
]>
<svg version="1.1" id="Layer_1" xmlns:x="&ns_extend;" xmlns:i="&ns_ai;" xmlns:graph="&ns_graphs;"
	 xmlns="http://www.w3.org/2000/svg" xmlns:xlink="http://www.w3.org/1999/xlink" x="0px" y="0px" width="39.302px"
	 height="35.835px" viewBox="0 0 39.302 35.835" enable-background="new 0 0 39.302 35.835" xml:space="preserve">
<metadata>
	<sfw  xmlns="&ns_sfw;">
		<slices></slices>
		<sliceSourceBounds  width="29.226" height="28.421" bottomLeftOrigin="true" x="92.403" y="196.707"></sliceSourceBounds>
	</sfw>
</metadata>
<g>
	
		<rect x="15.676" y="14.218" transform="matrix(-0.4244 -0.9055 0.9055 -0.4244 11.5016 43.6376)" fill="#FFFFFF" width="7.89" height="7.89"/>
	
		<rect x="11.745" y="5.01" transform="matrix(-0.4245 -0.9054 0.9054 -0.4245 14.244 26.9619)" fill="#FFFFFF" width="7.891" height="7.889"/>
	
		<rect x="6.338" y="18.837" transform="matrix(-0.4242 -0.9055 0.9055 -0.4242 -5.9846 41.7604)" fill="#FFFFFF" width="7.891" height="7.891"/>
	
		<rect x="26.574" y="23.729" transform="matrix(0.4565 0.8897 -0.8897 0.4565 38.492 -11.4561)" fill="#FFFFFF" width="4.099" height="4.1"/>
	
		<rect x="31.793" y="21.631" transform="matrix(0.425 0.9052 -0.9052 0.425 39.4312 -16.6918)" fill="#FFFFFF" width="2.121" height="2.12"/>
	<polygon fill="#FFFFFF" points="28.554,30.179 29.474,32.128 31.435,31.218 30.504,29.259 	"/>
</g>
</svg>
