<?xml version="1.0" encoding="utf-8"?>
<!-- Generator: Adobe Illustrator 16.0.0, SVG Export Plug-In . SVG Version: 6.00 Build 0)  -->
<!DOCTYPE svg PUBLIC "-//W3C//DTD SVG 1.1//EN" "http://www.w3.org/Graphics/SVG/1.1/DTD/svg11.dtd" [
	<!ENTITY ns_extend "http://ns.adobe.com/Extensibility/1.0/">
	<!ENTITY ns_ai "http://ns.adobe.com/AdobeIllustrator/10.0/">
	<!ENTITY ns_graphs "http://ns.adobe.com/Graphs/1.0/">
	<!ENTITY ns_vars "http://ns.adobe.com/Variables/1.0/">
	<!ENTITY ns_imrep "http://ns.adobe.com/ImageReplacement/1.0/">
	<!ENTITY ns_sfw "http://ns.adobe.com/SaveForWeb/1.0/">
	<!ENTITY ns_custom "http://ns.adobe.com/GenericCustomNamespace/1.0/">
	<!ENTITY ns_adobe_xpath "http://ns.adobe.com/XPath/1.0/">
]>
<svg version="1.1" id="Layer_1" xmlns:x="&ns_extend;" xmlns:i="&ns_ai;" xmlns:graph="&ns_graphs;"
	 xmlns="http://www.w3.org/2000/svg" xmlns:xlink="http://www.w3.org/1999/xlink" x="0px" y="0px" width="132px" height="34px"
	 viewBox="0 0 132 34" enable-background="new 0 0 132 34" xml:space="preserve">
<metadata>
	<sfw  xmlns="&ns_sfw;">
		<slices></slices>
		<sliceSourceBounds  width="110.28" height="28.43" y="-31.21" x="10.86" bottomLeftOrigin="true"></sliceSourceBounds>
	</sfw>
</metadata>
<g>
	<g>
		
			<rect x="102.56" y="13.3" transform="matrix(0.4243 0.9055 -0.9055 0.4243 76.9221 -86.513)" fill="#FFFFFF" width="7.89" height="7.89"/>
		
			<rect x="98.62" y="4.09" transform="matrix(0.4246 0.9054 -0.9054 0.4246 66.2919 -88.2384)" fill="#FFFFFF" width="7.89" height="7.89"/>
		
			<rect x="93.21" y="17.92" transform="matrix(0.4242 0.9056 -0.9056 0.4242 75.7474 -75.3945)" fill="#FFFFFF" width="7.89" height="7.89"/>
		
			<rect x="113.44" y="22.81" transform="matrix(-0.4563 -0.8898 0.8898 -0.4563 146.0766 138.9673)" fill="#FFFFFF" width="4.1" height="4.1"/>
		
			<rect x="118.67" y="20.71" transform="matrix(-0.4254 -0.905 0.905 -0.4254 150.9608 139.3876)" fill="#FFFFFF" width="2.12" height="2.12"/>
		<polygon fill="#FFFFFF" points="115.43,29.26 116.35,31.21 118.31,30.3 117.38,28.34 		"/>
	</g>
	<g>
		<path fill="#FFFFFF" d="M86.87,12.59c-0.92,0-1.66-0.73-1.66-1.66c0-0.92,0.75-1.65,1.66-1.65c0.91,0,1.65,0.74,1.65,1.65
			C88.52,11.86,87.78,12.59,86.87,12.59 M86.87,9.6c-0.75,0-1.33,0.61-1.33,1.34c0,0.73,0.58,1.33,1.33,1.33
			c0.74,0,1.32-0.6,1.32-1.33C88.19,10.21,87.61,9.6,86.87,9.6 M87.16,11.84l-0.5-0.77h-0.03v0.77h-0.36v-1.79
			c0.14-0.07,0.32-0.11,0.5-0.11c0.49,0,0.7,0.28,0.7,0.56c0,0.29-0.19,0.47-0.45,0.54l0.57,0.81H87.16z M86.77,10.23
			c-0.05,0-0.1,0.01-0.13,0.02v0.58h0.09c0.26,0,0.4-0.07,0.4-0.32C87.13,10.27,86.93,10.23,86.77,10.23"/>
		<polygon fill="#FFFFFF" points="15.25,11.35 15.25,21.74 13.07,21.74 13.07,11.35 10.86,11.35 10.86,9.88 17.48,9.88 17.48,11.35 
					"/>
		<path fill="#FFFFFF" d="M21.8,21.91c-2.6,0-3.86-2.07-3.86-4.81c0-2.78,1.26-4.83,3.86-4.83c2.62,0,3.86,2.05,3.86,4.83
			C25.66,19.84,24.41,21.91,21.8,21.91 M21.8,13.6c-1.48,0-1.78,1.71-1.78,3.48c0,1.76,0.33,3.4,1.78,3.4c1.5,0,1.78-1.64,1.78-3.4
			C23.58,15.31,23.3,13.6,21.8,13.6"/>
		<path fill="#FFFFFF" d="M36.76,21.74h-1.9l-1.6-5.83c-0.17-0.6-0.19-1.19-0.19-1.19h-0.03c0,0-0.04,0.58-0.21,1.19l-1.64,5.83
			h-1.9l-2.58-9.29h2.12l1.36,6.02c0.16,0.71,0.18,1.22,0.18,1.22h0.03c0,0,0.05-0.52,0.24-1.22l1.64-6.02h1.76l1.57,6.02
			c0.16,0.58,0.22,1.22,0.22,1.22h0.04c0,0,0.05-0.64,0.19-1.24l1.43-6h1.86L36.76,21.74z"/>
		<path fill="#FFFFFF" d="M46.14,21.74v-6.58c0-0.76-0.34-1.55-1.67-1.55c-0.69,0-1.05,0.1-1.45,0.26v7.88h-2.1v-8.79
			c0.88-0.41,2.07-0.67,3.64-0.67c2.78,0,3.69,1.34,3.69,2.84v6.62H46.14z"/>
		<path fill="#FFFFFF" d="M52.93,21.91c-1.41,0-2.29-0.26-2.93-0.67l0.53-1.54c0.41,0.28,1.09,0.55,1.98,0.55
			c1.17,0,1.9-0.73,1.9-1.83c0-0.9-0.52-1.45-1.85-2c-1.93-0.81-2.45-2.09-2.45-3.24c0-1.88,1.36-3.48,3.55-3.48
			c1.19,0,2.07,0.29,2.61,0.67l-0.48,1.35c-0.41-0.26-1.07-0.53-1.83-0.53c-1.08,0-1.71,0.67-1.71,1.72c0,1.03,0.76,1.52,1.79,1.95
			c2.33,0.98,2.67,2.29,2.67,3.43C56.72,20.4,55.14,21.91,52.93,21.91"/>
		<path fill="#FFFFFF" d="M62.25,21.93c-2.48,0-3.6-1.09-3.6-3.14v-6.34h2.1v6.46c0,0.88,0.48,1.57,1.57,1.57
			c0.6,0,1.03-0.1,1.4-0.31v-7.72h2.1v8.74C65.05,21.6,63.88,21.93,62.25,21.93"/>
		<path fill="#FFFFFF" d="M69.18,10.85c-0.64,0-1.16-0.47-1.16-1.04c0-0.59,0.52-1.05,1.16-1.05c0.66,0,1.16,0.46,1.16,1.05
			C70.34,10.38,69.84,10.85,69.18,10.85 M68.13,12.45h2.1v9.29h-2.1V12.45z"/>
		<path fill="#FFFFFF" d="M75.63,21.84c-1.83,0-2.55-1.22-2.55-2.52v-5.53h-1.03v-1.34h1.03V10.4l2.1-0.59v2.64h1.52v1.34h-1.52
			v5.43c0,0.72,0.29,1.21,1.02,1.21c0.19,0,0.33-0.03,0.5-0.09v1.31C76.51,21.74,76.13,21.84,75.63,21.84"/>
		<path fill="#FFFFFF" d="M79.94,17.86c0.17,1.72,1,2.58,2.53,2.58c1.07,0,1.84-0.26,2.34-0.52l0.5,1.33
			c-0.66,0.36-1.66,0.65-3.07,0.65c-2.64,0-4.31-1.71-4.31-4.84c0-3.03,1.54-4.79,3.96-4.79c2.47,0,3.81,1.64,3.72,4.76L79.94,17.86
			z M81.83,13.57c-1.22,0-2.07,1-2.01,3.22l3.84-0.59C83.66,14.33,82.99,13.57,81.83,13.57"/>
		<path fill="#FFFFFF" d="M17.94,29.28l-0.54-4.91c-0.04-0.36-0.04-0.67-0.04-0.67h-0.02c0,0-0.06,0.32-0.16,0.67l-1.37,4.91h-0.43
			l-1.36-4.91c-0.09-0.34-0.15-0.67-0.15-0.67h-0.02c0,0-0.02,0.32-0.05,0.67l-0.55,4.92h-0.44l0.73-5.87h0.57l1.31,4.73
			c0.11,0.39,0.15,0.67,0.15,0.67h0.02c0,0,0.03-0.27,0.14-0.67l1.33-4.73h0.57l0.74,5.87H17.94z"/>
		<path fill="#FFFFFF" d="M21.26,29.37c-1.1,0-1.72-0.8-1.72-1.74v-4.22h0.49v4.22c0,0.85,0.6,1.35,1.26,1.35
			c0.67,0,1.26-0.5,1.26-1.35v-4.22h0.43v4.22C22.98,28.57,22.36,29.37,21.26,29.37"/>
		<path fill="#FFFFFF" d="M27.98,29.28l-2.77-4.77c-0.23-0.4-0.41-0.77-0.41-0.77h-0.02c0,0,0.03,0.38,0.03,0.78v4.76H24.4v-5.87
			h0.62l2.71,4.68c0.22,0.38,0.35,0.66,0.35,0.66h0.02c0,0-0.03-0.28-0.03-0.68v-4.65h0.41v5.87H27.98z"/>
		<rect x="29.93" y="23.41" fill="#FFFFFF" width="0.49" height="5.87"/>
		<path fill="#FFFFFF" d="M33.8,29.36c-1.31,0-2.14-1.31-2.14-3.02c0-1.67,0.81-3.02,2.13-3.02c0.51,0,0.86,0.14,1.09,0.31
			l-0.15,0.29c-0.18-0.13-0.5-0.26-0.88-0.26c-1.24,0-1.69,1.31-1.69,2.68c0,1.41,0.5,2.66,1.68,2.66c0.38,0,0.65-0.1,0.89-0.25
			l0.15,0.29C34.66,29.24,34.25,29.36,33.8,29.36"/>
		<rect x="35.93" y="23.41" fill="#FFFFFF" width="0.49" height="5.87"/>
		<path fill="#FFFFFF" d="M38.64,26.75l-0.3-0.03v2.55h-0.48v-5.64c0.28-0.17,0.75-0.32,1.3-0.32c1.26,0,1.88,0.69,1.88,1.72
			C41.05,26.06,40.35,26.9,38.64,26.75 M39.12,23.63c-0.37,0-0.64,0.08-0.78,0.13v2.65l0.28,0.03c1.43,0.13,1.95-0.5,1.95-1.41
			C40.57,24.12,40.13,23.63,39.12,23.63"/>
		<path fill="#FFFFFF" d="M44.98,29.28l-0.65-2.01h-2.15l-0.67,2.01h-0.46l2.03-5.87h0.38l2.01,5.87H44.98z M43.46,24.58
			c-0.15-0.49-0.18-0.72-0.18-0.72h-0.02c0,0-0.04,0.22-0.2,0.71l-0.78,2.38h1.95L43.46,24.58z"/>
		<polygon fill="#FFFFFF" points="46.45,29.28 46.45,23.41 46.94,23.41 46.94,28.95 48.84,28.95 48.84,29.28 		"/>
		<path fill="#FFFFFF" d="M53.21,29.36c-0.63,0-0.99-0.13-1.28-0.31l0.15-0.34c0.24,0.15,0.55,0.28,1.06,0.28
			c0.77,0,1.26-0.51,1.26-1.3c0-0.6-0.33-0.95-1.13-1.25c-1.01-0.38-1.28-0.98-1.28-1.55c0-0.84,0.6-1.56,1.55-1.56
			c0.49,0,0.88,0.14,1.12,0.31l-0.13,0.31c-0.21-0.14-0.55-0.28-0.96-0.28c-0.71,0-1.1,0.49-1.1,1.21c0,0.69,0.52,0.98,1.07,1.19
			c1.18,0.42,1.36,1.13,1.36,1.61C54.89,28.68,54.17,29.36,53.21,29.36"/>
		<path fill="#FFFFFF" d="M57.94,29.36c-1.46,0-2.03-1.33-2.03-3.02c0-1.67,0.57-3.02,2.03-3.02c1.47,0,2.04,1.35,2.04,3.02
			C59.98,28.03,59.41,29.36,57.94,29.36 M57.94,23.65c-1.24,0-1.55,1.39-1.55,2.68c0,1.27,0.27,2.66,1.55,2.66
			c1.3,0,1.55-1.39,1.55-2.66C59.49,25.04,59.19,23.65,57.94,23.65"/>
		<polygon fill="#FFFFFF" points="61.67,23.74 61.67,26.06 63.57,26.06 63.57,26.39 61.67,26.39 61.67,29.28 61.19,29.28 
			61.19,23.41 63.76,23.41 63.76,23.74 		"/>
		<polygon fill="#FFFFFF" points="66.09,23.74 66.09,29.28 65.6,29.28 65.6,23.74 64.36,23.74 64.36,23.41 67.33,23.41 67.33,23.74 
					"/>
		<path fill="#FFFFFF" d="M72.7,29.28h-0.43l-1.11-4.6C71.08,24.31,71.04,24,71.04,24h-0.02c0,0-0.03,0.3-0.12,0.67l-1.13,4.6h-0.42
			l-1.4-5.87h0.52l0.96,4.65c0.07,0.34,0.12,0.67,0.12,0.67h0.02c0,0,0.05-0.33,0.14-0.67l1.13-4.65h0.41l1.12,4.65
			c0.08,0.31,0.13,0.67,0.13,0.67h0.02c0,0,0.05-0.37,0.12-0.67l1.01-4.65h0.46L72.7,29.28z"/>
		<path fill="#FFFFFF" d="M78.34,29.28l-0.65-2.01h-2.15l-0.66,2.01h-0.46l2.03-5.87h0.38l2.02,5.87H78.34z M76.83,24.58
			c-0.15-0.49-0.18-0.72-0.18-0.72h-0.02c0,0-0.04,0.22-0.2,0.71l-0.78,2.38h1.95L76.83,24.58z"/>
		<path fill="#FFFFFF" d="M82.5,29.28l-2.2-2.82h-0.03v2.82H79.8v-5.65c0.24-0.16,0.72-0.31,1.31-0.31c1.21,0,1.85,0.62,1.85,1.7
			c0,1.11-0.76,1.71-2,1.66v0.02l2.11,2.58H82.5z M81.07,23.62c-0.34,0-0.61,0.05-0.8,0.15v2.6c0.11,0.04,0.37,0.07,0.61,0.07
			c1.08,0,1.6-0.5,1.6-1.42C82.48,24.06,82,23.62,81.07,23.62"/>
		<polygon fill="#FFFFFF" points="84.19,29.28 84.19,23.41 86.77,23.41 86.77,23.74 84.67,23.74 84.67,26.06 86.58,26.06 
			86.58,26.39 84.67,26.39 84.67,28.95 86.77,28.95 86.77,29.28 		"/>
	</g>
</g>
</svg>
